<?xml version="1.0" standalone="no"?>
<!DOCTYPE svg PUBLIC "-//W3C//DTD SVG 20010904//EN"
 "http://www.w3.org/TR/2001/REC-SVG-20010904/DTD/svg10.dtd">
<svg version="1.0" xmlns="http://www.w3.org/2000/svg"
 width="720.000000pt" height="720.000000pt" viewBox="0 0 720.000000 720.000000"
 preserveAspectRatio="xMidYMid meet">

<g transform="translate(0.000000,720.000000) scale(0.100000,-0.100000)"
fill="#000000" stroke="none">
<path d="M4171 6276 c-7 -8 -14 -59 -16 -117 -5 -110 -17 -143 -61 -159 -14
-6 -36 -10 -49 -10 -17 0 -33 -13 -55 -45 -28 -41 -35 -45 -71 -45 -82 0 -169
-111 -125 -159 16 -18 35 -20 178 -23 156 -3 160 -3 178 -28 25 -33 25 -33
-12 -48 -57 -23 -63 -28 -71 -68 -6 -33 -30 -62 -136 -170 -70 -72 -157 -157
-192 -189 -35 -31 -78 -70 -95 -86 -58 -54 -106 -56 -161 -7 -19 17 -33 20
-97 16 -67 -3 -79 -7 -101 -31 -30 -31 -40 -34 -159 -42 -96 -6 -142 -26 -211
-91 -37 -35 -103 -54 -116 -33 -12 20 8 47 41 54 39 9 46 22 24 46 -13 15 -30
19 -77 19 -51 0 -62 -3 -78 -25 -23 -29 -47 -33 -200 -38 -103 -3 -123 -7
-168 -30 -36 -19 -66 -27 -103 -27 -51 0 -64 -5 -130 -52 -13 -10 -53 -21 -89
-24 -48 -5 -73 -14 -99 -34 -19 -15 -50 -31 -67 -35 -18 -3 -42 -18 -53 -32
-17 -22 -18 -27 -5 -47 37 -57 -21 -235 -77 -236 -5 0 -8 11 -8 24 0 13 -7 29
-15 36 -8 7 -15 26 -15 43 0 56 -18 14 -22 -52 -4 -61 -7 -67 -45 -100 l-41
-36 -4 -105 c-3 -101 -4 -108 -36 -150 l-32 -44 1 -300 c0 -166 4 -380 8 -476
8 -167 9 -178 39 -243 44 -94 41 -168 -10 -237 -16 -22 -18 -50 -18 -269 l-1
-244 29 -31 c43 -45 54 -73 48 -114 -8 -52 9 -401 20 -412 11 -11 35 2 37 21
2 8 5 19 9 24 6 9 30 453 27 485 -1 8 -1 35 -1 59 2 36 8 49 40 78 l37 34 3
150 4 149 34 26 c34 26 34 27 34 104 0 97 5 110 40 110 37 0 50 -19 55 -76 3
-35 11 -55 33 -78 16 -17 32 -46 36 -65 3 -19 22 -54 42 -78 31 -37 41 -44 62
-38 13 3 32 15 41 26 12 15 32 20 81 23 73 4 104 -4 141 -40 l26 -25 245 -2
245 -2 34 -30 c19 -16 46 -37 59 -46 24 -16 25 -22 28 -135 l4 -119 34 -32
c33 -31 34 -34 34 -112 0 -52 4 -84 13 -91 6 -5 23 -18 36 -28 l23 -18 3 -439
c2 -436 2 -439 23 -448 51 -23 54 -7 34 213 -6 69 -11 174 -10 233 1 108 1
108 29 122 15 8 44 15 63 15 44 0 43 4 51 -270 3 -113 11 -221 17 -240 l11
-35 14 40 c11 31 13 124 13 437 -1 341 1 400 14 413 8 8 21 15 28 15 17 0 38
20 38 36 0 7 -11 25 -25 40 -15 16 -25 40 -26 58 0 17 -4 74 -8 126 -8 110 -6
120 23 120 15 0 21 7 22 25 4 54 14 73 46 84 18 6 40 21 48 32 18 23 73 38
137 39 29 0 46 6 55 18 25 34 59 51 93 45 27 -4 39 1 71 29 23 21 55 38 77 42
20 4 53 20 71 36 25 22 44 30 72 30 62 1 114 17 143 44 15 14 42 28 61 32 55
9 90 25 101 45 10 20 59 27 59 9 0 -5 5 -10 11 -10 6 0 98 -89 204 -197 252
-257 357 -363 386 -389 13 -11 34 -32 46 -45 12 -13 27 -28 33 -34 5 -5 48
-49 95 -98 58 -59 94 -89 115 -93 19 -4 30 -13 30 -24 0 -9 9 -25 19 -34 15
-13 18 -26 14 -52 -7 -41 10 -64 46 -64 14 0 43 -11 63 -25 50 -34 103 -34
134 0 20 22 31 25 93 25 85 0 98 5 117 41 8 16 21 29 29 29 8 0 15 9 15 20 0
19 -7 20 -108 20 -70 0 -112 -4 -120 -12 -7 -7 -42 -12 -84 -12 -68 -1 -77 2
-131 37 -42 28 -65 52 -85 89 -28 53 -51 78 -233 250 -59 56 -106 105 -103
110 3 4 -7 13 -23 19 -65 24 -197 137 -218 185 -8 20 -23 34 -39 38 -14 3 -26
11 -26 16 0 5 -20 28 -45 51 -25 23 -45 48 -45 55 0 7 -18 31 -41 54 -32 32
-46 39 -65 34 -16 -4 -24 -2 -25 7 -3 29 4 43 32 71 16 16 29 33 29 37 0 15
80 52 100 46 11 -3 30 -24 43 -46 13 -21 53 -64 88 -94 60 -52 79 -74 129
-150 11 -16 20 -26 20 -21 0 4 16 -8 36 -28 43 -43 63 -43 77 -2 9 26 6 32
-22 55 -22 18 -35 40 -42 71 -6 28 -19 53 -36 67 -21 17 -27 31 -28 68 -2 37
-9 53 -35 80 -33 34 -34 36 -38 145 l-4 110 71 69 c39 38 71 77 71 87 0 11
-13 27 -30 36 l-29 16 -3 221 -3 220 -29 30 c-20 21 -30 43 -34 76 -4 37 -11
51 -38 72 l-34 25 0 153 0 153 51 61 c28 34 55 61 61 61 6 0 19 11 29 24 l20
25 223 3 224 3 31 33 c30 30 35 32 103 32 69 0 74 1 109 36 26 25 48 37 77 41
50 7 53 14 57 131 4 97 -9 135 -53 155 -15 6 -49 25 -76 41 -42 25 -60 30
-108 29 -33 -1 -78 -11 -104 -23 -26 -11 -60 -20 -76 -20 -45 0 -90 -23 -130
-68 -25 -28 -51 -45 -80 -52 -24 -7 -56 -18 -73 -25 -16 -8 -47 -18 -67 -23
-33 -9 -38 -8 -43 9 -4 11 0 31 9 44 15 23 15 26 -8 47 -51 50 -60 53 -146 55
-165 5 -208 12 -216 36 -8 24 -29 44 -96 88 -31 21 -52 44 -62 69 -24 61 -2
160 42 192 45 31 55 103 23 152 -24 35 -124 76 -189 76 -38 0 -44 -3 -58 -34
-10 -20 -31 -40 -52 -51 -35 -16 -37 -16 -54 5 -23 28 -15 44 53 111 65 64 79
86 79 128 0 31 -20 59 -56 79 -18 10 -17 12 8 31 22 18 28 32 33 86 4 35 14
70 21 76 18 15 18 49 0 49 -8 0 -18 -5 -22 -11 -6 -10 -23 -9 -94 6 -8 2 -21
4 -27 4 -7 1 -13 8 -13 16 0 19 -14 19 -29 1z m25 -930 c0 -17 2 -60 4 -95 4
-74 -13 -95 -29 -34 -9 33 -14 113 -12 166 2 33 37 -2 37 -37z m-1426 -440 c0
-19 -19 -32 -56 -40 -40 -9 -63 14 -39 38 21 20 95 22 95 2z m-41 -330 c25 -6
60 -25 78 -42 27 -25 33 -39 33 -70 -1 -22 -7 -50 -15 -64 -8 -14 -14 -39 -15
-56 0 -50 -41 -155 -84 -219 -23 -33 -45 -62 -49 -64 -5 -2 -23 -15 -40 -30
-18 -15 -52 -33 -77 -40 -24 -7 -55 -22 -69 -32 -33 -26 -67 -24 -87 5 -15 23
-14 30 21 118 20 51 43 107 50 123 7 17 16 46 20 65 8 34 45 102 72 129 20 20
35 59 38 101 1 19 3 43 4 52 2 27 31 50 55 43 12 -4 41 -12 65 -19z m1119 -27
c22 -7 37 -24 51 -53 12 -23 21 -47 21 -53 0 -6 9 -39 20 -73 22 -69 26 -153
9 -197 -5 -15 -24 -43 -42 -60 -29 -31 -35 -33 -105 -33 -70 0 -75 -2 -104
-32 -103 -111 -106 -112 -169 -106 -31 3 -34 6 -37 40 -5 57 41 142 121 223
96 98 98 103 123 278 10 70 44 90 112 66z m-588 -2793 c0 -3 -4 -8 -10 -11 -5
-3 -10 -1 -10 4 0 6 5 11 10 11 6 0 10 -2 10 -4z"/>
<path d="M5565 6138 c-33 -16 -73 -35 -90 -43 -16 -7 -51 -22 -77 -34 -75 -33
-63 -48 37 -49 84 0 87 1 130 36 35 30 75 92 75 117 0 9 -14 4 -75 -27z"/>
<path d="M5276 5955 c-11 -8 -43 -21 -71 -30 -29 -8 -55 -21 -58 -29 -8 -20
25 -46 58 -46 17 0 40 -11 59 -29 93 -88 108 -101 120 -101 28 0 37 28 34 107
l-3 78 -49 33 c-54 36 -63 38 -90 17z"/>
<path d="M3600 1907 c0 -7 16 -29 36 -48 l35 -34 138 -3 138 -3 7 25 c4 15 2
35 -4 45 -8 16 -15 18 -47 10 -21 -5 -55 -9 -75 -9 -20 0 -50 -8 -67 -17 -25
-15 -34 -16 -48 -6 -30 22 -92 53 -103 53 -5 0 -10 -6 -10 -13z"/>
<path d="M1762 1615 c-13 -15 -33 -25 -48 -25 -39 0 -63 -17 -57 -39 10 -39
60 -33 83 9 6 11 17 20 25 20 20 0 45 29 39 45 -8 21 -17 19 -42 -10z"/>
<path d="M3221 1024 c-4 -145 -5 -144 170 -144 l140 0 20 34 c11 19 26 37 34
40 22 8 18 25 -12 57 -16 16 -37 39 -49 51 -64 70 -95 74 -107 13 -12 -55 -30
-89 -48 -93 -21 -4 -85 54 -112 101 -11 20 -23 37 -27 37 -3 0 -7 -43 -9 -96z"/>
</g>
</svg>
